<svg xmlns="http://www.w3.org/2000/svg" viewBox="0 0 100 100" fill="currentColor"><path fill-rule="evenodd" d="M 27.04 88.11 Q 26.49 85.21 26.49 82.26 Q 26.49 74.11 30.70 66.64 Q 34.90 59.17 42.34 55.19 Q 44.28 54.13 46.32 53.37 Q 44.78 51.88 43.71 49.94 Q 41.57 46.13 41.57 41.95 Q 41.57 37.71 43.74 33.88 Q 45.91 30.04 49.82 27.88 Q 51.21 27.18 52.67 26.66 Q 51.35 25.70 50.59 24.21 Q 49.41 22.23 49.41 20.09 Q 49.41 17.95 50.54 16.00 Q 51.66 14.02 53.65 12.96 Q 55.64 11.89 57.73 11.89 Q 59.77 11.89 61.74 12.96 Q 63.73 14.02 64.87 16.00 Q 66.03 17.95 66.03 20.09 Q 66.03 22.23 64.95 24.21 Q 64.09 25.70 62.82 26.71 Q 64.20 27.18 65.72 27.88 Q 69.55 30.04 71.73 33.88 Q 73.92 37.71 73.92 41.95 Q 73.92 46.13 71.83 49.94 Q 70.72 51.88 69.19 53.37 Q 71.13 54.18 73.05 55.19 Q 80.55 59.17 84.78 66.64 Q 89.00 74.11 89.00 82.26 Q 89.00 85.21 88.40 88.11 L 27.04 88.11 Z"/></svg>