<svg xmlns="http://www.w3.org/2000/svg" viewBox="0 0 100 100" fill="currentColor"><path fill-rule="evenodd" d="M 75.60 28.62 L 75.60 23.73 L 42.23 23.73 L 42.23 28.62 L 75.60 28.62 Z M 79.46 79.57 L 79.46 73.78 L 38.38 73.78 L 38.38 79.57 L 79.46 79.57 Z M 51.51 11.00 L 65.96 11.00 L 65.96 19.09 L 74.87 19.09 L 74.87 11.00 L 88.95 11.00 L 88.95 19.44 L 82.94 19.44 L 82.94 26.95 L 78.16 34.78 L 78.16 65.27 L 82.94 73.05 L 82.94 80.51 L 88.95 80.51 L 88.95 89.00 L 28.84 89.00 L 28.84 80.51 L 34.83 80.51 L 34.83 73.05 L 39.68 65.12 L 39.73 65.12 L 39.73 34.83 L 39.68 34.83 L 34.83 26.95 L 34.83 19.44 L 28.84 19.44 L 28.84 11.00 L 42.65 11.00 L 42.65 19.09 L 51.51 19.09 L 51.51 11.00 Z M 86.08 86.08 L 86.08 83.21 L 31.76 83.21 L 31.76 86.08 L 86.08 86.08 Z"/></svg>