<svg xmlns="http://www.w3.org/2000/svg" viewBox="0 0 100 100" fill="currentColor"><path fill-rule="evenodd" d="M 51.97 23.75 Q 53.88 22.56 53.88 20.53 Q 53.88 19.24 53.10 17.76 Q 52.34 16.29 52.34 15.14 Q 52.34 12.77 55.34 11.21 Q 59.76 15.41 60.14 17.71 Q 60.52 20.02 60.52 20.70 Q 60.52 23.14 58.76 23.75 L 58.98 23.75 Q 58.98 23.80 58.86 23.80 Q 86.66 41.44 89.00 88.79 L 38.70 88.79 Q 38.02 85.89 38.02 82.88 Q 38.02 74.59 48.52 67.25 Q 59.03 59.90 59.03 54.04 Q 59.03 53.63 58.98 53.26 Q 55.54 61.92 49.49 61.92 L 48.97 61.92 Q 44.29 69.49 38.95 69.49 Q 38.75 69.49 38.60 69.49 L 41.09 64.10 L 35.53 68.25 Q 29.62 66.80 28.23 62.50 Q 32.79 50.62 32.79 40.76 Q 32.79 39.37 32.67 38.03 Q 35.16 32.37 40.31 26.97 Q 40.46 26.46 40.46 25.99 Q 40.46 24.53 39.28 23.87 Q 38.12 23.19 38.12 21.36 Q 38.12 19.46 39.16 16.04 Q 44.56 17.43 47.46 23.75 L 51.97 23.75 Z M 38.65 36.98 L 38.65 37.81 Q 38.85 39.37 39.26 39.37 L 40.36 39.37 Q 43.93 39.37 43.93 36.83 Q 43.93 35.06 46.17 32.57 L 45.85 32.57 Q 40.87 32.57 38.95 35.89 L 38.65 36.98 Z M 32.99 60.31 L 32.99 61.56 Q 32.99 63.07 34.45 63.07 L 34.96 63.07 Q 38.70 62.29 38.70 59.53 L 38.33 57.78 Q 35.11 57.78 32.99 60.31 Z M 58.81 27.90 L 61.52 32.52 Q 80.97 46.47 81.27 86.09 L 85.27 86.09 Q 82.93 42.01 58.81 27.90 Z"/></svg>