<svg xmlns="http://www.w3.org/2000/svg" viewBox="0 0 100 100" fill="currentColor"><path fill-rule="evenodd" d="M 27.14 36.88 Q 22.53 36.77 21.95 32.16 Q 21.95 30.81 22.64 29.59 Q 23.36 28.35 24.66 27.67 Q 25.98 26.98 27.37 26.98 Q 28.74 26.98 30.04 27.67 Q 31.36 28.35 32.02 29.59 Q 32.71 30.81 32.71 32.16 Q 32.52 35.26 29.74 36.33 L 41.33 60.84 L 38.81 26.84 Q 34.78 26.84 33.91 22.33 Q 33.91 20.98 34.61 19.78 Q 35.33 18.55 36.60 17.88 Q 37.88 17.20 39.39 17.20 Q 40.75 17.20 42.02 17.88 Q 43.31 18.55 44.01 19.78 Q 44.72 20.98 44.72 22.33 Q 44.63 24.52 42.40 26.16 L 51.56 62.40 L 53.64 22.67 Q 50.40 21.22 50.29 18.89 Q 50.29 17.54 51.02 16.29 Q 51.74 15.02 53.03 14.40 Q 54.32 13.76 55.62 13.76 Q 57.03 13.76 58.30 14.40 Q 59.59 15.02 60.32 16.29 Q 61.05 17.54 61.05 18.89 Q 60.91 21.51 57.65 22.67 L 59.50 62.50 L 68.46 26.64 Q 66.24 24.36 66.24 22.33 Q 66.24 21.03 66.94 19.79 Q 67.64 18.55 68.94 17.88 Q 70.26 17.20 71.56 17.20 Q 73.02 17.20 74.32 17.88 Q 75.64 18.55 76.33 19.79 Q 77.03 21.03 77.03 22.33 Q 76.50 26.46 72.33 27.23 L 67.88 60.84 L 80.33 35.90 Q 78.26 34.26 78.26 32.16 Q 78.26 30.81 78.95 29.59 Q 79.65 28.35 80.94 27.70 Q 82.22 27.03 83.57 27.03 Q 85.03 27.03 86.32 27.70 Q 87.60 28.35 88.30 29.59 Q 89.00 30.81 89.00 32.16 Q 88.38 36.72 83.57 36.72 L 75.82 59.16 L 75.82 86.24 L 34.12 86.24 L 34.12 59.16 L 27.14 36.88 Z M 73.06 68.98 L 73.06 65.22 L 37.84 65.22 L 37.84 68.98 L 73.06 68.98 Z M 73.06 83.43 L 73.06 79.60 L 37.84 79.60 L 37.84 83.43 L 73.06 83.43 Z"/></svg>