<svg xmlns="http://www.w3.org/2000/svg" viewBox="0 0 100 100" fill="currentColor"><path fill-rule="evenodd" d="M 51.46 39.55 Q 51.50 39.41 51.60 39.26 Q 49.93 37.21 47.50 35.87 Q 43.96 33.92 40.24 33.92 Q 36.53 33.92 33.02 35.85 Q 29.52 37.78 27.50 41.34 Q 25.50 44.89 25.50 48.71 Q 25.50 52.57 27.46 56.05 Q 29.41 59.53 32.95 61.44 Q 33.99 62.11 35.09 62.50 L 51.46 62.50 L 51.46 39.55 Z M 58.19 62.50 L 74.50 62.50 Q 75.64 62.11 76.69 61.44 Q 80.22 59.53 82.16 56.05 Q 84.10 52.57 84.10 48.71 Q 84.10 44.89 82.11 41.34 Q 80.13 37.78 76.62 35.85 Q 73.12 33.92 69.35 33.92 Q 65.67 33.92 62.15 35.87 Q 59.67 37.21 58.04 39.26 Q 58.15 39.41 58.19 39.55 L 58.19 62.50 Z M 36.77 67.41 L 36.77 81.87 L 72.88 81.87 L 72.88 67.41 L 36.77 67.41 Z M 32.85 85.69 L 32.85 67.41 Q 30.85 66.79 29.03 65.75 Q 25.75 63.17 23.17 58.50 Q 20.59 53.81 20.59 48.71 Q 20.59 43.56 23.21 38.86 Q 25.84 34.16 30.56 31.64 Q 35.29 29.11 40.25 29.11 Q 44.07 29.11 47.69 30.59 L 47.69 30.48 Q 47.69 28.77 48.54 27.27 Q 49.41 25.76 50.94 24.91 Q 51.55 24.57 52.31 24.37 L 52.31 21.81 L 47.17 21.81 L 47.17 18.47 L 52.31 18.47 L 52.31 14.31 L 57.32 14.31 L 57.32 18.47 L 62.48 18.47 L 62.48 21.81 L 57.32 21.81 L 57.32 24.37 Q 58.08 24.57 58.71 24.91 Q 60.19 25.76 61.08 27.27 Q 61.96 28.77 61.96 30.48 L 61.96 30.59 Q 65.58 29.11 69.35 29.11 Q 74.31 29.11 79.03 31.64 Q 83.76 34.16 86.37 38.86 Q 89.00 43.56 89.00 48.71 Q 89.00 53.81 86.42 58.50 Q 83.85 63.17 80.60 65.75 Q 78.76 66.79 76.79 67.41 L 76.79 85.69 L 32.85 85.69 Z M 50.36 30.86 Q 50.36 32.05 50.95 33.09 Q 51.55 34.11 52.62 34.71 Q 53.70 35.31 54.80 35.31 Q 55.95 35.31 57.02 34.71 Q 58.08 34.11 58.65 33.09 Q 59.23 32.05 59.23 30.86 Q 59.23 29.72 58.65 28.65 Q 58.08 27.58 57.02 27.03 Q 55.95 26.48 54.80 26.48 Q 53.70 26.48 52.62 27.03 Q 51.55 27.58 50.95 28.65 Q 50.36 29.72 50.36 30.86 Z"/></svg>