<svg xmlns="http://www.w3.org/2000/svg" viewBox="0 0 100 100" fill="currentColor"><path fill-rule="evenodd" d="M 50.83 67.93 Q 49.22 65.17 49.22 62.20 Q 49.22 59.07 50.89 56.32 Q 51.31 55.41 51.88 54.70 Q 48.74 52.71 46.87 49.42 Q 44.74 45.67 44.69 41.50 L 44.69 41.30 Q 44.74 37.13 46.87 33.31 Q 49.11 29.40 53.18 27.22 Q 54.65 26.48 56.20 25.97 Q 54.85 25.03 53.96 23.51 Q 52.81 21.48 52.81 19.34 Q 52.81 17.11 53.98 15.15 Q 55.16 13.19 57.20 12.10 Q 59.23 11.00 61.42 11.00 Q 63.56 11.00 65.59 12.10 Q 67.63 13.19 68.80 15.15 Q 69.96 17.11 69.96 19.34 Q 69.96 21.48 68.88 23.51 Q 68.04 25.03 66.68 26.02 Q 68.14 26.48 69.66 27.22 Q 73.67 29.40 75.97 33.31 Q 78.16 37.13 78.21 41.30 L 78.21 41.50 Q 78.16 45.67 75.97 49.42 Q 74.03 52.66 71.01 54.65 Q 71.58 55.41 72.00 56.32 Q 73.62 59.07 73.62 62.20 Q 73.62 65.22 71.95 68.04 Q 71.85 68.19 71.75 68.41 L 86.45 89.00 L 36.39 89.00 L 50.53 67.93 L 50.83 67.93 Z M 64.49 50.53 L 64.49 44.05 L 73.47 44.05 L 73.47 38.43 L 64.49 38.43 L 64.49 31.96 L 58.33 31.96 L 58.33 38.43 L 49.37 38.43 L 49.37 44.05 L 58.33 44.05 L 58.33 50.53 L 64.49 50.53 Z M 66.79 67.93 Q 69.91 65.59 69.91 61.79 Q 69.91 59.54 68.75 57.52 Q 67.58 55.48 65.56 54.41 Q 63.56 53.33 61.35 53.33 Q 59.17 53.33 57.17 54.41 Q 55.16 55.48 53.98 57.52 Q 52.81 59.54 52.81 61.79 Q 52.81 65.12 56.10 67.93 L 44.52 85.66 L 78.42 85.66 L 66.79 67.93 Z M 56.42 16.24 Q 55.63 17.62 55.63 19.14 Q 55.63 20.64 56.38 22.03 Q 57.15 23.41 58.52 24.15 Q 59.90 24.86 61.40 24.86 Q 62.92 24.86 64.32 24.15 Q 65.74 23.41 66.49 22.03 Q 67.26 20.64 67.26 19.14 Q 67.26 17.62 66.48 16.24 Q 65.69 14.85 64.27 14.15 Q 62.87 13.45 61.42 13.45 Q 59.90 13.45 58.55 14.15 Q 57.20 14.85 56.42 16.24 Z"/></svg>