<svg xmlns="http://www.w3.org/2000/svg" viewBox="0 0 100 100" fill="currentColor"><path fill-rule="evenodd" d="M 27.14 36.88 Q 22.53 36.77 21.95 32.16 Q 21.95 30.81 22.64 29.59 Q 23.36 28.35 24.66 27.67 Q 25.98 26.98 27.37 26.98 Q 28.74 26.98 30.04 27.67 Q 31.36 28.35 32.02 29.59 Q 32.71 30.81 32.71 32.16 Q 32.52 35.26 29.74 36.33 L 41.33 60.84 L 38.81 26.84 Q 34.78 26.84 33.91 22.33 Q 33.91 20.98 34.61 19.78 Q 35.33 18.55 36.60 17.88 Q 37.88 17.20 39.39 17.20 Q 40.75 17.20 42.02 17.88 Q 43.31 18.55 44.01 19.78 Q 44.72 20.98 44.72 22.33 Q 44.63 24.52 42.40 26.16 L 51.56 62.40 L 53.64 22.67 Q 50.40 21.22 50.29 18.89 Q 50.29 17.54 51.02 16.29 Q 51.74 15.02 53.03 14.40 Q 54.32 13.76 55.62 13.76 Q 57.03 13.76 58.30 14.40 Q 59.59 15.02 60.32 16.29 Q 61.05 17.54 61.05 18.89 Q 60.91 21.51 57.65 22.67 L 59.50 62.50 L 68.46 26.64 Q 66.24 24.36 66.24 22.33 Q 66.24 21.03 66.94 19.79 Q 67.64 18.55 68.94 17.88 Q 70.26 17.20 71.56 17.20 Q 73.02 17.20 74.32 17.88 Q 75.64 18.55 76.33 19.79 Q 77.03 21.03 77.03 22.33 Q 76.50 26.46 72.33 27.23 L 67.88 60.84 L 80.33 35.90 Q 78.26 34.26 78.26 32.16 Q 78.26 30.81 78.95 29.59 Q 79.65 28.35 80.94 27.70 Q 82.22 27.03 83.57 27.03 Q 85.03 27.03 86.32 27.70 Q 87.60 28.35 88.30 29.59 Q 89.00 30.81 89.00 32.16 Q 88.38 36.72 83.57 36.72 L 75.82 59.16 L 75.82 86.24 L 34.12 86.24 L 34.12 59.16 L 27.14 36.88 Z M 73.06 73.16 L 73.06 62.26 L 64.30 65.88 L 46.71 65.88 L 37.84 62.94 L 37.84 73.16 L 73.06 73.16 Z M 37.84 75.48 L 37.84 83.43 L 73.06 83.43 L 73.06 75.48 L 37.84 75.48 Z M 35.81 59.02 L 39.54 61.05 L 28.35 35.56 Q 28.69 35.42 29.03 35.22 Q 29.90 34.74 30.38 33.90 Q 30.86 33.05 30.86 32.12 Q 30.86 31.16 30.38 30.30 Q 29.90 29.45 29.05 28.97 Q 28.19 28.49 27.23 28.49 Q 26.36 28.49 25.51 28.97 Q 24.66 29.45 24.15 30.30 Q 23.65 31.16 23.65 32.12 Q 23.65 33.05 24.13 33.90 Q 24.61 34.74 25.48 35.23 Q 26.36 35.71 27.23 35.71 Q 27.57 35.71 28.01 35.65 L 35.81 59.02 Z M 43.03 60.84 L 49.62 62.40 L 40.55 25.53 Q 40.84 25.43 41.09 25.29 Q 41.91 24.80 42.36 23.96 Q 42.83 23.11 42.83 22.19 Q 42.83 21.26 42.36 20.40 Q 41.91 19.53 41.03 19.06 Q 40.16 18.60 39.29 18.60 Q 38.38 18.60 37.53 19.06 Q 36.67 19.53 36.19 20.40 Q 35.71 21.26 35.71 22.19 Q 35.71 23.11 36.16 23.96 Q 36.63 24.80 37.50 25.29 Q 38.38 25.78 39.29 25.78 Q 39.64 25.78 40.02 25.73 L 43.03 60.84 Z M 60.81 62.01 L 66.38 60.71 L 71.03 25.78 Q 71.28 25.82 71.51 25.82 Q 72.44 25.82 73.33 25.34 Q 74.22 24.86 74.69 24.01 Q 75.16 23.16 75.16 22.24 Q 75.16 21.31 74.64 20.44 Q 74.13 19.57 73.28 19.12 Q 72.44 18.66 71.51 18.66 Q 70.64 18.66 69.76 19.12 Q 68.89 19.57 68.41 20.44 Q 67.93 21.31 67.93 22.24 Q 67.93 23.16 68.41 24.01 Q 68.89 24.86 69.78 25.34 Q 70.16 25.57 70.50 25.68 L 60.81 62.01 Z M 53.16 62.40 L 57.99 62.40 L 55.67 21.99 Q 56.60 21.99 57.37 21.51 Q 58.19 21.03 58.69 20.18 Q 59.20 19.33 59.20 18.36 Q 59.20 17.43 58.67 16.60 Q 58.15 15.74 57.31 15.26 Q 56.49 14.78 55.57 14.78 Q 54.71 14.78 53.81 15.26 Q 52.91 15.74 52.44 16.60 Q 51.99 17.43 51.99 18.36 Q 51.99 19.33 52.44 20.18 Q 52.91 21.03 53.84 21.51 Q 54.50 21.90 55.23 21.99 L 53.16 62.40 Z M 69.62 61.05 L 74.66 59.02 L 82.71 35.26 Q 83.23 35.42 83.78 35.42 Q 84.69 35.42 85.54 34.91 Q 86.40 34.40 86.88 33.57 Q 87.36 32.75 87.36 31.78 Q 87.36 30.86 86.84 29.99 Q 86.33 29.12 85.51 28.66 Q 84.69 28.19 83.78 28.19 Q 82.80 28.19 81.95 28.66 Q 81.11 29.12 80.64 29.99 Q 80.19 30.86 80.19 31.78 Q 80.19 32.75 80.64 33.57 Q 81.11 34.40 81.98 34.94 Q 82.18 35.03 82.32 35.12 L 69.62 61.05 Z"/></svg>