<svg xmlns="http://www.w3.org/2000/svg" viewBox="0 0 100 100" fill="currentColor"><path fill-rule="evenodd" d="M 52.53 23.56 Q 52.73 23.15 52.73 22.58 Q 52.73 21.48 52.16 20.37 Q 51.60 19.25 51.60 18.52 Q 51.60 15.97 55.23 11.07 Q 61.59 16.49 61.59 21.85 Q 61.59 23.20 61.17 24.60 Q 86.67 41.42 89.00 88.93 L 38.53 88.93 Q 37.86 86.01 37.86 83.00 Q 37.86 74.67 48.10 66.98 Q 58.36 59.27 58.36 55.94 L 58.36 55.62 Q 53.68 61.60 50.77 61.76 Q 48.37 69.14 40.14 70.09 L 39.68 68.94 L 37.38 70.51 Q 30.15 68.11 28.54 63.95 Q 32.60 50.99 32.60 41.00 Q 32.60 39.43 32.50 37.99 Q 35.00 32.31 38.74 25.96 Q 37.64 24.30 37.46 23.80 Q 37.28 23.30 37.28 23.05 Q 37.28 21.63 38.99 15.92 Q 44.40 17.32 47.22 23.56 L 52.53 23.56 Z M 38.79 37.99 Q 40.71 34.70 45.70 34.70 L 46.02 34.70 Q 43.79 37.09 43.79 38.92 Q 43.79 41.47 40.19 41.47 L 39.11 41.47 Q 38.69 41.47 38.48 39.90 L 38.48 39.12 L 38.79 37.99 Z M 38.16 59.93 L 38.53 61.76 Q 38.53 64.46 34.78 65.25 L 34.26 65.25 Q 32.80 65.25 32.80 63.68 L 32.80 62.48 Q 34.95 59.93 38.16 59.93 Z M 46.19 24.60 Q 44.35 19.60 40.36 17.64 Q 39.04 20.85 39.04 22.78 Q 39.04 24.18 39.79 25.05 Q 40.56 25.91 40.56 26.84 Q 40.56 27.68 39.99 28.46 Q 36.91 33.51 34.63 38.65 Q 34.83 40.95 34.83 43.23 Q 34.83 53.49 30.98 63.48 Q 32.28 67.43 37.64 68.68 L 42.69 64.93 L 40.87 68.79 Q 47.90 68.26 49.40 60.77 Q 54.86 60.57 59.14 51.56 Q 59.71 53.12 59.71 54.69 Q 59.71 60.93 49.77 68.11 Q 39.83 75.29 39.83 81.80 Q 39.83 84.61 40.46 87.31 L 85.99 87.26 Q 83.95 44.43 58.26 24.66 Q 58.31 24.66 58.31 24.60 L 58.09 24.60 Q 59.71 24.08 59.71 21.85 Q 59.71 21.22 59.36 19.17 Q 59.03 17.10 55.03 13.26 Q 53.41 17.10 53.41 19.25 Q 53.41 20.23 53.88 21.10 Q 54.35 21.95 54.35 22.93 Q 54.35 23.83 53.93 24.60 L 46.19 24.60 Z"/></svg>