<svg xmlns="http://www.w3.org/2000/svg" viewBox="0 0 100 100" fill="currentColor"><path fill-rule="evenodd" d="M 48.32 36.48 Q 46.82 39.10 46.82 41.95 Q 46.82 44.81 48.29 47.35 Q 49.77 49.89 52.35 51.33 Q 54.92 52.75 57.73 52.75 Q 60.63 52.75 63.19 51.33 Q 65.77 49.89 67.18 47.35 Q 68.62 44.81 68.62 41.95 Q 68.62 39.10 67.17 36.48 Q 65.72 33.85 63.12 32.48 Q 60.53 31.10 57.73 31.10 Q 54.97 31.10 52.40 32.48 Q 49.82 33.85 48.32 36.48 Z M 54.71 20.09 Q 54.71 20.90 55.12 21.61 Q 55.53 22.29 56.24 22.67 Q 56.96 23.04 57.73 23.04 Q 58.54 23.04 59.24 22.67 Q 59.96 22.29 60.37 21.61 Q 60.78 20.90 60.78 20.09 Q 60.78 19.32 60.37 18.62 Q 59.96 17.90 59.23 17.50 Q 58.49 17.09 57.73 17.09 Q 57.01 17.09 56.26 17.50 Q 55.53 17.90 55.12 18.62 Q 54.71 19.32 54.71 20.09 Z M 85.45 88.06 L 85.45 88.11 L 31.28 88.11 L 31.28 88.06 L 27.04 88.11 Q 26.49 85.21 26.49 82.26 Q 26.49 74.11 30.70 66.64 Q 34.90 59.17 42.34 55.19 Q 44.28 54.13 46.32 53.37 Q 44.78 51.88 43.71 49.94 Q 41.57 46.13 41.57 41.95 Q 41.57 37.71 43.74 33.88 Q 45.91 30.04 49.82 27.88 Q 51.21 27.18 52.67 26.66 Q 51.35 25.70 50.59 24.21 Q 49.41 22.23 49.41 20.09 Q 49.41 17.95 50.54 16.00 Q 51.66 14.02 53.65 12.96 Q 55.64 11.89 57.73 11.89 Q 59.77 11.89 61.74 12.96 Q 63.73 14.02 64.87 16.00 Q 66.03 17.95 66.03 20.09 Q 66.03 22.23 64.95 24.21 Q 64.09 25.70 62.82 26.71 Q 64.20 27.18 65.72 27.88 Q 69.55 30.04 71.73 33.88 Q 73.92 37.71 73.92 41.95 Q 73.92 46.13 71.83 49.94 Q 70.72 51.88 69.19 53.37 Q 71.13 54.18 73.05 55.19 Q 80.55 59.17 84.78 66.64 Q 89.00 74.11 89.00 82.26 Q 89.00 85.21 88.40 88.11 L 85.45 88.06 Z M 83.70 81.39 Q 83.51 75.02 80.24 69.26 Q 76.72 63.10 70.48 59.76 Q 64.25 56.42 57.73 56.42 Q 51.16 56.42 44.91 59.76 Q 38.67 63.10 35.26 69.26 Q 31.93 75.02 31.74 81.39 L 83.70 81.39 Z"/></svg>