<svg xmlns="http://www.w3.org/2000/svg" viewBox="0 0 128 128" role="img" aria-label="The Chess Lab favicon">
  <defs>
    <linearGradient id="bg" x1="18" y1="10" x2="110" y2="118" gradientUnits="userSpaceOnUse">
      <stop offset="0" stop-color="#0f172a"/>
      <stop offset="0.55" stop-color="#111827"/>
      <stop offset="1" stop-color="#020617"/>
    </linearGradient>
    <linearGradient id="top" x1="34" y1="20" x2="94" y2="62" gradientUnits="userSpaceOnUse">
      <stop offset="0" stop-color="#93c5fd"/>
      <stop offset="1" stop-color="#2563eb"/>
    </linearGradient>
    <linearGradient id="left" x1="30" y1="60" x2="64" y2="110" gradientUnits="userSpaceOnUse">
      <stop offset="0" stop-color="#38bdf8"/>
      <stop offset="1" stop-color="#0f766e"/>
    </linearGradient>
    <linearGradient id="right" x1="66" y1="60" x2="100" y2="110" gradientUnits="userSpaceOnUse">
      <stop offset="0" stop-color="#818cf8"/>
      <stop offset="1" stop-color="#4338ca"/>
    </linearGradient>
    <filter id="shadow" x="-20%" y="-20%" width="140%" height="150%">
      <feDropShadow dx="0" dy="8" stdDeviation="7" flood-color="#000000" flood-opacity="0.42"/>
    </filter>
  </defs>
  <rect width="128" height="128" rx="28" fill="url(#bg)"/>
  <circle cx="100" cy="26" r="18" fill="#1d4ed8" opacity="0.18"/>
  <circle cx="25" cy="105" r="22" fill="#06b6d4" opacity="0.13"/>
  <g filter="url(#shadow)">
    <path d="M64 22 102 44 64 66 26 44Z" fill="url(#top)"/>
    <path d="M26 44 64 66 64 110 26 88Z" fill="url(#left)"/>
    <path d="M102 44 64 66 64 110 102 88Z" fill="url(#right)"/>
    <path d="M64 22 102 44 64 66 26 44Z" fill="none" stroke="#e0f2fe" stroke-width="3" stroke-linejoin="round" opacity="0.92"/>
    <path d="M26 44 64 66 102 44M64 66V110M26 44V88L64 110 102 88V44" fill="none" stroke="#dbeafe" stroke-width="3" stroke-linejoin="round" opacity="0.76"/>
    <path d="M45 33 83 55M64 22v44M83 33 45 55" fill="none" stroke="#0f172a" stroke-width="3" stroke-linecap="round" opacity="0.45"/>
    <path d="M42 58 42 91M86 58 86 91M26 66 64 88 102 66" fill="none" stroke="#e0f2fe" stroke-width="2.5" stroke-linecap="round" opacity="0.45"/>
  </g>
  <g transform="translate(0 -2)">
    <path d="M57 46c2-8 12-11 20-8 6 3 10 8 10 15 0 9-7 14-16 17l7 9H48l8-10c-5-5-7-10-6-16 1-4 3-7 7-7Z" fill="#f8fafc"/>
    <path d="M61 50c4-5 10-6 15-3M68 40l3 7" fill="none" stroke="#2563eb" stroke-width="4" stroke-linecap="round"/>
    <circle cx="78" cy="52" r="2.7" fill="#0f172a"/>
  </g>
</svg>
